<svg xmlns="http://www.w3.org/2000/svg" viewBox="0 0 960 480" width="100%" height="100%" role="img" aria-labelledby="arch-title arch-desc">
  <title id="arch-title">Runtime-Slayers Multi-Domain AI Engine Architecture</title>
  <desc id="arch-desc">Multi-Domain AI Engine: Telemetry to Mathematical Invariants to Core Research Council to Domain Outcomes.</desc>
  <defs>
    <linearGradient id="bg-grad" x1="0%" y1="0%" x2="100%" y2="100%">
      <stop offset="0%" stop-color="#080c14"/>
      <stop offset="100%" stop-color="#0d1527"/>
    </linearGradient>
    <linearGradient id="card-grad" x1="0%" y1="0%" x2="0%" y2="100%">
      <stop offset="0%" stop-color="#141f36"/>
      <stop offset="100%" stop-color="#0e1726"/>
    </linearGradient>
    <linearGradient id="cyan-grad" x1="0%" y1="0%" x2="100%" y2="0%">
      <stop offset="0%" stop-color="#38bdf8"/>
      <stop offset="100%" stop-color="#0284c7"/>
    </linearGradient>
    <linearGradient id="purple-grad" x1="0%" y1="0%" x2="100%" y2="0%">
      <stop offset="0%" stop-color="#c084fc"/>
      <stop offset="100%" stop-color="#7e22ce"/>
    </linearGradient>
    <linearGradient id="emerald-grad" x1="0%" y1="0%" x2="100%" y2="0%">
      <stop offset="0%" stop-color="#34d399"/>
      <stop offset="100%" stop-color="#059669"/>
    </linearGradient>
    <linearGradient id="rose-grad" x1="0%" y1="0%" x2="100%" y2="0%">
      <stop offset="0%" stop-color="#fb7185"/>
      <stop offset="100%" stop-color="#e11d48"/>
    </linearGradient>
    <marker id="arr-c" markerWidth="8" markerHeight="6" refX="7" refY="3" orient="auto"><polygon points="0 0, 8 3, 0 6" fill="#38bdf8"/></marker>
    <marker id="arr-p" markerWidth="8" markerHeight="6" refX="7" refY="3" orient="auto"><polygon points="0 0, 8 3, 0 6" fill="#c084fc"/></marker>
    <marker id="arr-e" markerWidth="8" markerHeight="6" refX="7" refY="3" orient="auto"><polygon points="0 0, 8 3, 0 6" fill="#34d399"/></marker>
    <pattern id="dot-grid" width="24" height="24" patternUnits="userSpaceOnUse"><circle cx="2" cy="2" r="1" fill="#334155" opacity="0.35"/></pattern>
  </defs>

  <rect width="960" height="480" rx="14" fill="url(#bg-grad)"/>
  <rect width="960" height="480" rx="14" fill="url(#dot-grid)"/>
  <rect width="960" height="480" rx="14" fill="none" stroke="#1e293b" stroke-width="1.5"/>

  <text x="480" y="38" fill="#f8fafc" font-size="18" font-family="'Segoe UI', -apple-system, sans-serif" font-weight="800" text-anchor="middle" letter-spacing="0.06em">THE RUNTIME-SLAYERS MULTI-DOMAIN AI ENGINE</text>
  <text x="480" y="58" fill="#94a3b8" font-size="11" font-family="'Segoe UI', -apple-system, sans-serif" text-anchor="middle">Applying Artificial Intelligence in Every Domain to Extract High-Level Complex Results</text>

  <!-- Connectors -->
  <path d="M 216 112 H 244 A 8 8 0 0 1 252 120 V 172 A 8 8 0 0 0 260 180 H 272" fill="none" stroke="#38bdf8" stroke-width="1.8" marker-end="url(#arr-c)" opacity="0.85"/>
  <path d="M 216 180 H 272" fill="none" stroke="#38bdf8" stroke-width="1.8" marker-end="url(#arr-c)" opacity="0.85"/>
  <path d="M 216 248 H 244 A 8 8 0 0 0 252 240 V 188 A 8 8 0 0 1 260 180 H 272" fill="none" stroke="#38bdf8" stroke-width="1.8" marker-end="url(#arr-c)" opacity="0.85"/>
  <path d="M 216 316 H 244 A 8 8 0 0 1 252 324 V 348 A 8 8 0 0 0 260 356 H 272" fill="none" stroke="#38bdf8" stroke-width="1.8" marker-end="url(#arr-c)" opacity="0.85"/>

  <path d="M 464 180 H 496 A 8 8 0 0 1 504 188 V 232 A 8 8 0 0 0 512 240 H 528" fill="none" stroke="#c084fc" stroke-width="1.8" marker-end="url(#arr-p)" opacity="0.9"/>
  <path d="M 464 356 H 496 A 8 8 0 0 0 504 348 V 248 A 8 8 0 0 1 512 240 H 528" fill="none" stroke="#c084fc" stroke-width="1.8" marker-end="url(#arr-p)" opacity="0.9"/>

  <path d="M 720 220 H 744 A 8 8 0 0 0 752 212 V 112 A 8 8 0 0 1 760 104 H 768" fill="none" stroke="#34d399" stroke-width="1.8" marker-end="url(#arr-e)" opacity="0.85"/>
  <path d="M 720 232 H 744 A 8 8 0 0 0 752 224 V 188 A 8 8 0 0 1 760 180 H 768" fill="none" stroke="#34d399" stroke-width="1.8" marker-end="url(#arr-e)" opacity="0.85"/>
  <path d="M 720 248 H 744 A 8 8 0 0 1 752 256 V 268 A 8 8 0 0 0 760 276 H 768" fill="none" stroke="#34d399" stroke-width="1.8" marker-end="url(#arr-e)" opacity="0.85"/>
  <path d="M 720 260 H 744 A 8 8 0 0 1 752 268 V 348 A 8 8 0 0 0 760 356 H 768" fill="none" stroke="#34d399" stroke-width="1.8" marker-end="url(#arr-e)" opacity="0.85"/>
  <path d="M 720 272 H 740 A 8 8 0 0 1 748 280 V 420 A 8 8 0 0 0 756 428 H 768" fill="none" stroke="#34d399" stroke-width="1.8" marker-end="url(#arr-e)" opacity="0.85"/>

  <!-- Col 1: Inputs -->
  <rect x="40" y="88" width="176" height="48" rx="8" fill="url(#card-grad)" stroke="#38bdf8" stroke-width="1"/>
  <text x="56" y="110" fill="#f8fafc" font-size="12" font-weight="600">Turbofan Telemetry</text>
  <text x="56" y="126" fill="#94a3b8" font-size="10">NASA C-MAPSS Runs</text>

  <rect x="40" y="156" width="176" height="48" rx="8" fill="url(#card-grad)" stroke="#38bdf8" stroke-width="1"/>
  <text x="56" y="178" fill="#f8fafc" font-size="12" font-weight="600">Multi-Modal Radar &amp; RF</text>
  <text x="56" y="194" fill="#94a3b8" font-size="10">Defense Sensor Networks</text>

  <rect x="40" y="224" width="176" height="48" rx="8" fill="url(#card-grad)" stroke="#38bdf8" stroke-width="1"/>
  <text x="56" y="246" fill="#f8fafc" font-size="12" font-weight="600">Clinical Bio-Signals</text>
  <text x="56" y="262" fill="#94a3b8" font-size="10">PhysioNet 10-20 EEG / TCIA</text>

  <rect x="40" y="292" width="176" height="48" rx="8" fill="url(#card-grad)" stroke="#38bdf8" stroke-width="1"/>
  <text x="56" y="314" fill="#f8fafc" font-size="12" font-weight="600">Genomic &amp; Root Matrices</text>
  <text x="56" y="330" fill="#94a3b8" font-size="10">CITE-seq &amp; Microfluidics</text>

  <rect x="40" y="360" width="176" height="48" rx="8" fill="url(#card-grad)" stroke="#38bdf8" stroke-width="1"/>
  <text x="56" y="382" fill="#f8fafc" font-size="12" font-weight="600">Quantum Spectra &amp; Spin</text>
  <text x="56" y="398" fill="#94a3b8" font-size="10">NIST ASD Ground Truth</text>

  <!-- Col 2: Core Invariant Engines -->
  <rect x="272" y="132" width="192" height="96" rx="10" fill="url(#card-grad)" stroke="#818cf8" stroke-width="1.5"/>
  <rect x="282" y="142" width="6" height="76" rx="3" fill="url(#purple-grad)"/>
  <text x="298" y="162" fill="#818cf8" font-size="10" font-weight="700" letter-spacing="0.08em">FIRST-PRINCIPLES</text>
  <text x="298" y="180" fill="#f8fafc" font-size="13" font-weight="600">Physics &amp; Entropy Gating</text>
  <text x="298" y="198" fill="#94a3b8" font-size="10">Thermodynamics &amp; WKB Tunneling</text>
  <text x="298" y="214" fill="#64748b" font-size="10">Hamiltonian Invariance Constraints</text>

  <rect x="272" y="308" width="192" height="96" rx="10" fill="url(#card-grad)" stroke="#818cf8" stroke-width="1.5"/>
  <rect x="282" y="318" width="6" height="76" rx="3" fill="url(#purple-grad)"/>
  <text x="298" y="338" fill="#818cf8" font-size="10" font-weight="700" letter-spacing="0.08em">TRANSLATIONAL FIDELITY</text>
  <text x="298" y="356" fill="#f8fafc" font-size="13" font-weight="600">Transducers &amp; Micro-Silicon</text>
  <text x="298" y="374" fill="#94a3b8" font-size="10">PEDOT:PSS OECTs &amp; Hydrogels</text>
  <text x="298" y="390" fill="#64748b" font-size="10">Deterministic FreeRTOS &amp; TinyML</text>

  <!-- Col 3: Research Council Engine -->
  <rect x="528" y="160" width="192" height="160" rx="12" fill="#171e33" stroke="#c084fc" stroke-width="2"/>
  <rect x="528" y="160" width="192" height="32" rx="12" fill="url(#purple-grad)" opacity="0.3"/>
  <text x="624" y="181" fill="#e9d5ff" font-size="11" font-weight="700" text-anchor="middle" letter-spacing="0.08em">RUNTIME SLAYERS CORE</text>
  <text x="624" y="214" fill="#f8fafc" font-size="14" font-weight="700" text-anchor="middle">Deep-Tech AI Surrogates</text>
  <text x="624" y="234" fill="#38bdf8" font-size="11" text-anchor="middle">• Physics-Informed Graph Transformers</text>
  <text x="624" y="252" fill="#c084fc" font-size="11" text-anchor="middle">• Active Inference Defense Agents</text>
  <text x="624" y="270" fill="#34d399" font-size="11" text-anchor="middle">• Neural Spatio-Temporal Surrogates</text>
  <text x="624" y="288" fill="#fb7185" font-size="11" text-anchor="middle">• Quantum Dynamics &amp; Radiomics</text>
  <text x="624" y="306" fill="#94a3b8" font-size="10" text-anchor="middle">108 Packages • Zero Synthetic Delusion</text>

  <!-- Col 4: High-Level Real-World Outcomes -->
  <rect x="768" y="80" width="152" height="48" rx="8" fill="url(#card-grad)" stroke="#34d399" stroke-width="1.2"/>
  <text x="780" y="100" fill="#34d399" font-size="9" font-weight="700">AEROSPACE &amp; PROPULSION</text>
  <text x="780" y="116" fill="#f8fafc" font-size="11" font-weight="600">TITAN-NET &amp; Plasma RF</text>

  <rect x="768" y="156" width="152" height="48" rx="8" fill="url(#card-grad)" stroke="#34d399" stroke-width="1.2"/>
  <text x="780" y="176" fill="#34d399" font-size="9" font-weight="700">DEFENSE &amp; SURVEILLANCE</text>
  <text x="780" y="192" fill="#f8fafc" font-size="11" font-weight="600">VISHWAROOP &amp; C-UAS</text>

  <rect x="768" y="232" width="152" height="48" rx="8" fill="url(#card-grad)" stroke="#34d399" stroke-width="1.2"/>
  <text x="780" y="252" fill="#34d399" font-size="9" font-weight="700">BIOMEDICAL &amp; NEURO</text>
  <text x="780" y="268" fill="#f8fafc" font-size="11" font-weight="600">Carotid AI &amp; Tactile Vest</text>

  <rect x="768" y="308" width="152" height="48" rx="8" fill="url(#card-grad)" stroke="#34d399" stroke-width="1.2"/>
  <text x="780" y="328" fill="#34d399" font-size="9" font-weight="700">QUANTUM &amp; GENOMICS</text>
  <text x="780" y="344" fill="#f8fafc" font-size="11" font-weight="600">Avian Nav &amp; Chronos CRISPR</text>

  <rect x="768" y="384" width="152" height="48" rx="8" fill="url(#card-grad)" stroke="#34d399" stroke-width="1.2"/>
  <text x="780" y="404" fill="#34d399" font-size="9" font-weight="700">SOCIETAL &amp; AGRITECH</text>
  <text x="780" y="420" fill="#f8fafc" font-size="11" font-weight="600">Smart Cane &amp; RhizoRoot</text>
</svg>