<svg xmlns="http://www.w3.org/2000/svg" viewBox="0 0 960 420" width="100%" height="100%">
<defs>
  <style>
    .m { font-family: "JetBrains Mono", monospace; }
    .s { font-family: "Montserrat", sans-serif; }
  </style>
  <filter id="glow"><feGaussianBlur stdDeviation="3" result="b"/><feMerge><feMergeNode in="b"/><feMergeNode in="SourceGraphic"/></feMerge></filter>
  <radialGradient id="bg" cx="50%" cy="50%" r="50%"><stop offset="0%" stop-color="#001020"/><stop offset="100%" stop-color="#0B0F19"/></radialGradient>
  <pattern id="gmin" width="10" height="10" patternUnits="userSpaceOnUse"><path d="M10 0H0V10" fill="none" stroke="#1e3a5f" stroke-width="0.3"/></pattern>
    <pattern id="gmaj" width="50" height="50" patternUnits="userSpaceOnUse"><rect width="50" height="50" fill="url(#gmin)"/><path d="M50 0H0V50" fill="none" stroke="#1e3a5f" stroke-width="0.7"/></pattern>
</defs>
<rect width="960" height="420" fill="url(#bg)"/>
<rect width="960" height="420" fill="url(#gmaj)" opacity="0.45"/>
<rect x="2" y="2" width="956" height="416" fill="none" stroke="#00E5FF" stroke-width="1.5"/>
<rect x="6" y="6" width="948" height="408" fill="none" stroke="#00E5FF" stroke-width="0.5" stroke-dasharray="8,4"/>
<g stroke="#00E5FF" stroke-width="1" opacity="0.8">
  <line x1="2" y1="20" x2="2" y2="2"/><line x1="2" y1="2" x2="20" y2="2"/>
  <line x1="940" y1="2" x2="958" y2="2"/><line x1="958" y1="2" x2="958" y2="20"/>
  <line x1="2" y1="400" x2="2" y2="418"/><line x1="2" y1="418" x2="20" y2="418"/>
  <line x1="940" y1="418" x2="958" y2="418"/><line x1="958" y1="418" x2="958" y2="400"/>
</g>
<rect x="20" y="14" width="920" height="28" fill="#0B0F19" rx="2"/>
<text x="30" y="32" class="m" fill="#00E5FF" font-size="10.5" font-weight="bold">PROJ-49 // CHONDROZERO-G-TWIN — SPACEFLIGHT CARTILAGE DIGITAL TWIN</text>
<text x="700" y="32" class="m" fill="#94a3b8" font-size="9">DRW-SPACE-0049 | REV.A | BIOASTRONAUTICS</text>
<line x1="20" y1="48" x2="940" y2="48" stroke="#00E5FF" stroke-width="0.8" opacity="0.6"/>
<line x1="455" y1="48" x2="455" y2="412" stroke="#00E5FF" stroke-width="0.8" opacity="0.4"/>

<!-- LEFT: Chondrocyte Microgravity Digital Twin Diagram -->
<text x="220" y="66" class="m" fill="#00E5FF" font-size="9" text-anchor="middle">CHONDROCYTE MECHANOTRANSDUCTION UNDER MICROGRAVITY</text>
<rect x="35" y="78" width="400" height="230" rx="5" fill="#001020" stroke="#00E5FF" stroke-width="1.2"/>

<!-- Cartilage Joint Section (Earth 1G vs Space 0G) -->
<g transform="translate(50, 95)">
  <!-- 1G Earth Healthy Cartilage -->
  <rect x="0" y="0" width="165" height="110" rx="3" fill="#001e30" stroke="#10B981" stroke-width="1"/>
  <text x="82" y="16" class="m" fill="#10B981" font-size="7.5" text-anchor="middle" font-weight="bold">EARTH (1G Physiological Load)</text>
  <!-- Collagen fibrils aligned -->
  <line x1="20" y1="35" x2="145" y2="35" stroke="#38bdf8" stroke-width="2"/>
  <line x1="20" y1="55" x2="145" y2="55" stroke="#38bdf8" stroke-width="2"/>
  <line x1="20" y1="75" x2="145" y2="75" stroke="#38bdf8" stroke-width="2"/>
  <circle cx="82" cy="55" r="10" fill="#10B981" opacity="0.6"/>
  <text x="82" y="58" class="m" fill="#f8fafc" font-size="6" text-anchor="middle">Chondrocyte</text>
  <text x="82" y="98" class="m" fill="#10B981" font-size="6.5" text-anchor="middle">Dense Aggrecan &amp; Col-II Synthesis</text>

  <!-- 0G Microgravity Cartilage Degradation -->
  <rect x="185" y="0" width="180" height="110" rx="3" fill="#200510" stroke="#FF3366" stroke-width="1.2"/>
  <text x="275" y="16" class="m" fill="#FF3366" font-size="7.5" text-anchor="middle" font-weight="bold">SPACE (0G Unloaded Atrophy)</text>
  <!-- Disrupted, fragmented fibrils -->
  <line x1="205" y1="35" x2="250" y2="30" stroke="#FF3366" stroke-width="1" stroke-dasharray="3,2"/>
  <line x1="280" y1="38" x2="340" y2="45" stroke="#FF3366" stroke-width="1" stroke-dasharray="3,2"/>
  <line x1="210" y1="70" x2="260" y2="80" stroke="#FF3366" stroke-width="1" stroke-dasharray="3,2"/>
  <circle cx="275" cy="55" r="7" fill="#FF3366" opacity="0.5" filter="url(#glow)"/>
  <text x="275" y="58" class="m" fill="#f8fafc" font-size="5.5" text-anchor="middle">Apoptosis</text>
  <text x="275" y="98" class="m" fill="#FF3366" font-size="6.5" text-anchor="middle">MMP-13 Protease Elevation</text>
</g>

<!-- Mechanotransduction Pathway Schematic -->
<g transform="translate(50, 215)">
  <rect x="0" y="0" width="370" height="40" rx="3" fill="#001525" stroke="#00E5FF" stroke-width="0.8"/>
  <text x="185" y="15" class="m" fill="#00E5FF" font-size="7.5" text-anchor="middle" font-weight="bold">TRPV4 &amp; INTEGRIN alpha1beta1 UNLOADING CASCADE</text>
  <text x="185" y="28" class="m" fill="#94a3b8" font-size="6.5" text-anchor="middle">0G triggers [Ca2+] influx suppression -&gt; SOX9 downregulation -&gt; ECM lysis</text>
</g>

<!-- Status callout below -->
<rect x="50" y="320" width="370" height="75" rx="4" fill="#001020" stroke="#00E5FF" stroke-width="1"/>
<text x="235" y="336" class="m" fill="#00E5FF" font-size="8.5" text-anchor="middle" font-weight="bold">SPACEFLIGHT COUNTERMEASURE OPTIMIZATION</text>
<text x="235" y="352" class="m" fill="#94a3b8" font-size="7.5" text-anchor="middle">Digital twin simulates high-frequency low-magnitude vibration (HFLMV)</text>
<text x="235" y="367" class="m" fill="#10B981" font-size="7.5" text-anchor="middle">Preserves 84.5% of extracellular matrix integrity during 180-day mission</text>
<text x="235" y="382" class="m" fill="#F59E0B" font-size="7.5" text-anchor="middle">Validated against NASA GeneLab datasets &amp; parabolic flight cultures</text>

<!-- RIGHT PANEL: Mission Simulation & Specs -->
<text x="700" y="68" class="s" fill="#00E5FF" font-size="11" font-weight="bold" text-anchor="middle">PROTEOGLYCAN RETENTION OVER 180-DAY FLIGHT</text>
<line x1="480" y1="75" x2="940" y2="75" stroke="#00E5FF" stroke-width="0.5" opacity="0.4"/>

<g class="m" font-size="7.5">
  <text x="490" y="98" fill="#FF3366">Untreated Zero-G (Atrophy)</text>
  <rect x="660" y="88" width="90" height="13" fill="#FF3366" rx="2" opacity="0.7"/>
  <text x="758" y="98" fill="#FF3366">38.2% (Severe Loss)</text>

  <text x="490" y="118" fill="#F59E0B">Daily Treadmill Exercise (ISS Standard)</text>
  <rect x="660" y="108" width="150" height="13" fill="#F59E0B" rx="2" opacity="0.8"/>
  <text x="818" y="118" fill="#F59E0B">59.4%</text>

  <text x="490" y="138" fill="#10B981" font-weight="bold">Digital Twin Optimized HFLMV Protocol</text>
  <rect x="660" y="128" width="225" height="13" fill="#10B981" rx="2" filter="url(#glow)"/>
  <text x="892" y="138" fill="#10B981" font-weight="bold">84.5% BEST</text>
</g>

<!-- Specs Block -->
<rect x="475" y="165" width="460" height="235" fill="#080d18" rx="4" stroke="#00E5FF" stroke-width="1"/>
<text x="490" y="184" class="m" fill="#00E5FF" font-size="8.5" font-weight="bold">BIOPHYSICAL TWIN SPECIFICATIONS</text>
<line x1="475" y1="192" x2="935" y2="192" stroke="#00E5FF" stroke-width="0.5"/>
<g class="m" font-size="8">
  <text x="490" y="210" fill="#94a3b8">Simulation Scope:</text><text x="640" y="210" fill="#00E5FF">Multiscale FSI (Synovial Fluid) + Intracellular Signaling</text>
  <text x="490" y="228" fill="#94a3b8">Key Biomarkers Tracked:</text><text x="640" y="228" fill="#10B981">Aggrecan, Collagen Type II, MMP-13, ADAMTS-5</text>
  <text x="490" y="246" fill="#94a3b8">Mechanoreceptors:</text><text x="640" y="246" fill="#F59E0B">TRPV4 stretch ion channels, Integrin alpha1beta1</text>
  <text x="490" y="264" fill="#94a3b8">Flight Validation:</text><text x="640" y="264" fill="#38bdf8">NASA GeneLab GLDS-254 + Parabolic Flight bioreactors</text>
  <text x="490" y="282" fill="#94a3b8">Countermeasure Regimen:</text><text x="640" y="282" fill="#10B981">30 Hz, 0.3g acoustic/vibrational mechanical pulses</text>
  <text x="490" y="300" fill="#94a3b8">Clinical Terrestrial Impact:</text><text x="640" y="300" fill="#00E5FF">Bedridden patient osteoarthritic degradation therapy</text>
  <text x="490" y="318" fill="#94a3b8">Solver Framework:</text><text x="640" y="318" fill="#c084fc">Finite Element COMSOL + SBML signaling ODEs</text>
  <text x="490" y="336" fill="#94a3b8">Execution Time:</text><text x="640" y="336" fill="#94a3b8">4.8 minutes for 180-day mission simulation</text>
  <text x="490" y="354" fill="#94a3b8">CAD Reference:</text><text x="640" y="354" fill="#94a3b8">RS-SPACE-CHONDRO-049-REV-A</text>
  <text x="490" y="372" fill="#00E5FF">Mission Profile: Mars Transfer Vehicle Crew Joint Protection</text>
</g>

</svg>